<mxfile host="app.diagrams.net" agent="Mozilla/5.0 (Macintosh; Intel Mac OS X 10_15_7) AppleWebKit/537.36 (KHTML, like Gecko) Chrome/136.0.0.0 Safari/537.36" version="27.0.4">
  <diagram name="Seite-1" id="p_Q_JiVLQB9OQW9FZqTv">
    <mxGraphModel dx="1216" dy="727" grid="1" gridSize="10" guides="1" tooltips="1" connect="1" arrows="1" fold="1" page="1" pageScale="1" pageWidth="827" pageHeight="1169" math="0" shadow="0">
      <root>
        <mxCell id="0" />
        <mxCell id="1" parent="0" />
        <mxCell id="HshuLtFM2YXqN97A8FCs-37" style="edgeStyle=orthogonalEdgeStyle;rounded=0;orthogonalLoop=1;jettySize=auto;html=1;exitX=0.5;exitY=1;exitDx=0;exitDy=0;entryX=0.5;entryY=0;entryDx=0;entryDy=0;" edge="1" parent="1" source="HshuLtFM2YXqN97A8FCs-29" target="HshuLtFM2YXqN97A8FCs-30">
          <mxGeometry relative="1" as="geometry" />
        </mxCell>
        <mxCell id="HshuLtFM2YXqN97A8FCs-40" value="P" style="edgeLabel;html=1;align=center;verticalAlign=middle;resizable=0;points=[];" vertex="1" connectable="0" parent="HshuLtFM2YXqN97A8FCs-37">
          <mxGeometry x="-0.019" y="-1" relative="1" as="geometry">
            <mxPoint as="offset" />
          </mxGeometry>
        </mxCell>
        <mxCell id="HshuLtFM2YXqN97A8FCs-39" style="edgeStyle=orthogonalEdgeStyle;rounded=0;orthogonalLoop=1;jettySize=auto;html=1;exitX=0.5;exitY=1;exitDx=0;exitDy=0;entryX=0.5;entryY=0;entryDx=0;entryDy=0;" edge="1" parent="1" source="HshuLtFM2YXqN97A8FCs-29" target="HshuLtFM2YXqN97A8FCs-31">
          <mxGeometry relative="1" as="geometry" />
        </mxCell>
        <mxCell id="HshuLtFM2YXqN97A8FCs-41" value="K" style="edgeLabel;html=1;align=center;verticalAlign=middle;resizable=0;points=[];" vertex="1" connectable="0" parent="HshuLtFM2YXqN97A8FCs-39">
          <mxGeometry x="-0.0421" relative="1" as="geometry">
            <mxPoint as="offset" />
          </mxGeometry>
        </mxCell>
        <mxCell id="HshuLtFM2YXqN97A8FCs-29" value="_ _ _ L _ _" style="text;strokeColor=none;fillColor=none;html=1;fontSize=24;fontStyle=1;verticalAlign=middle;align=center;" vertex="1" parent="1">
          <mxGeometry x="320" y="170" width="140" height="60" as="geometry" />
        </mxCell>
        <mxCell id="HshuLtFM2YXqN97A8FCs-46" style="edgeStyle=orthogonalEdgeStyle;rounded=0;orthogonalLoop=1;jettySize=auto;html=1;exitX=0.5;exitY=1;exitDx=0;exitDy=0;" edge="1" parent="1" source="HshuLtFM2YXqN97A8FCs-30" target="HshuLtFM2YXqN97A8FCs-32">
          <mxGeometry relative="1" as="geometry" />
        </mxCell>
        <mxCell id="HshuLtFM2YXqN97A8FCs-49" value="P" style="edgeLabel;html=1;align=center;verticalAlign=middle;resizable=0;points=[];" vertex="1" connectable="0" parent="HshuLtFM2YXqN97A8FCs-46">
          <mxGeometry x="0.14" y="1" relative="1" as="geometry">
            <mxPoint as="offset" />
          </mxGeometry>
        </mxCell>
        <mxCell id="HshuLtFM2YXqN97A8FCs-30" value="_ _ _ V _ _" style="text;strokeColor=none;fillColor=none;html=1;fontSize=24;fontStyle=1;verticalAlign=middle;align=center;" vertex="1" parent="1">
          <mxGeometry x="200" y="300" width="100" height="40" as="geometry" />
        </mxCell>
        <mxCell id="HshuLtFM2YXqN97A8FCs-42" style="edgeStyle=orthogonalEdgeStyle;rounded=0;orthogonalLoop=1;jettySize=auto;html=1;exitX=0.5;exitY=1;exitDx=0;exitDy=0;" edge="1" parent="1" source="HshuLtFM2YXqN97A8FCs-31" target="HshuLtFM2YXqN97A8FCs-33">
          <mxGeometry relative="1" as="geometry" />
        </mxCell>
        <mxCell id="HshuLtFM2YXqN97A8FCs-43" value="K" style="edgeLabel;html=1;align=center;verticalAlign=middle;resizable=0;points=[];" vertex="1" connectable="0" parent="HshuLtFM2YXqN97A8FCs-42">
          <mxGeometry x="0.06" y="-1" relative="1" as="geometry">
            <mxPoint as="offset" />
          </mxGeometry>
        </mxCell>
        <mxCell id="HshuLtFM2YXqN97A8FCs-59" style="edgeStyle=orthogonalEdgeStyle;rounded=0;orthogonalLoop=1;jettySize=auto;html=1;exitX=0;exitY=0.5;exitDx=0;exitDy=0;entryX=1;entryY=0.5;entryDx=0;entryDy=0;" edge="1" parent="1" source="HshuLtFM2YXqN97A8FCs-31" target="HshuLtFM2YXqN97A8FCs-30">
          <mxGeometry relative="1" as="geometry" />
        </mxCell>
        <mxCell id="HshuLtFM2YXqN97A8FCs-60" value="P" style="edgeLabel;html=1;align=center;verticalAlign=middle;resizable=0;points=[];" vertex="1" connectable="0" parent="HshuLtFM2YXqN97A8FCs-59">
          <mxGeometry x="-0.35" y="-2" relative="1" as="geometry">
            <mxPoint as="offset" />
          </mxGeometry>
        </mxCell>
        <mxCell id="HshuLtFM2YXqN97A8FCs-31" value="_ _ _ L K _" style="text;strokeColor=none;fillColor=none;html=1;fontSize=24;fontStyle=1;verticalAlign=middle;align=center;" vertex="1" parent="1">
          <mxGeometry x="460" y="300" width="100" height="40" as="geometry" />
        </mxCell>
        <mxCell id="HshuLtFM2YXqN97A8FCs-52" style="edgeStyle=orthogonalEdgeStyle;rounded=0;orthogonalLoop=1;jettySize=auto;html=1;exitX=0.5;exitY=1;exitDx=0;exitDy=0;" edge="1" parent="1" source="HshuLtFM2YXqN97A8FCs-32" target="HshuLtFM2YXqN97A8FCs-50">
          <mxGeometry relative="1" as="geometry" />
        </mxCell>
        <mxCell id="HshuLtFM2YXqN97A8FCs-54" value="P" style="edgeLabel;html=1;align=center;verticalAlign=middle;resizable=0;points=[];" vertex="1" connectable="0" parent="HshuLtFM2YXqN97A8FCs-52">
          <mxGeometry x="-0.15" y="-3" relative="1" as="geometry">
            <mxPoint as="offset" />
          </mxGeometry>
        </mxCell>
        <mxCell id="HshuLtFM2YXqN97A8FCs-75" style="edgeStyle=orthogonalEdgeStyle;rounded=0;orthogonalLoop=1;jettySize=auto;html=1;exitX=0;exitY=0.5;exitDx=0;exitDy=0;entryX=0;entryY=0.5;entryDx=0;entryDy=0;" edge="1" parent="1" source="HshuLtFM2YXqN97A8FCs-32" target="HshuLtFM2YXqN97A8FCs-29">
          <mxGeometry relative="1" as="geometry">
            <Array as="points">
              <mxPoint x="140" y="460" />
              <mxPoint x="140" y="200" />
            </Array>
          </mxGeometry>
        </mxCell>
        <mxCell id="HshuLtFM2YXqN97A8FCs-76" value="K" style="edgeLabel;html=1;align=center;verticalAlign=middle;resizable=0;points=[];" vertex="1" connectable="0" parent="HshuLtFM2YXqN97A8FCs-75">
          <mxGeometry x="-0.232" y="4" relative="1" as="geometry">
            <mxPoint as="offset" />
          </mxGeometry>
        </mxCell>
        <mxCell id="HshuLtFM2YXqN97A8FCs-32" value="_ _ P V _ _" style="text;strokeColor=none;fillColor=none;html=1;fontSize=24;fontStyle=1;verticalAlign=middle;align=center;" vertex="1" parent="1">
          <mxGeometry x="200" y="440" width="100" height="40" as="geometry" />
        </mxCell>
        <mxCell id="HshuLtFM2YXqN97A8FCs-57" style="edgeStyle=orthogonalEdgeStyle;rounded=0;orthogonalLoop=1;jettySize=auto;html=1;exitX=0;exitY=0.5;exitDx=0;exitDy=0;entryX=1;entryY=0.5;entryDx=0;entryDy=0;" edge="1" parent="1" source="HshuLtFM2YXqN97A8FCs-33" target="HshuLtFM2YXqN97A8FCs-30">
          <mxGeometry relative="1" as="geometry" />
        </mxCell>
        <mxCell id="HshuLtFM2YXqN97A8FCs-58" value="P" style="edgeLabel;html=1;align=center;verticalAlign=middle;resizable=0;points=[];" vertex="1" connectable="0" parent="HshuLtFM2YXqN97A8FCs-57">
          <mxGeometry x="0.0933" relative="1" as="geometry">
            <mxPoint as="offset" />
          </mxGeometry>
        </mxCell>
        <mxCell id="HshuLtFM2YXqN97A8FCs-33" value="_ _ _ L K K" style="text;strokeColor=none;fillColor=none;html=1;fontSize=24;fontStyle=1;verticalAlign=middle;align=center;" vertex="1" parent="1">
          <mxGeometry x="460" y="440" width="100" height="40" as="geometry" />
        </mxCell>
        <mxCell id="HshuLtFM2YXqN97A8FCs-53" style="edgeStyle=orthogonalEdgeStyle;rounded=0;orthogonalLoop=1;jettySize=auto;html=1;exitX=0.5;exitY=1;exitDx=0;exitDy=0;" edge="1" parent="1" source="HshuLtFM2YXqN97A8FCs-50" target="HshuLtFM2YXqN97A8FCs-51">
          <mxGeometry relative="1" as="geometry" />
        </mxCell>
        <mxCell id="HshuLtFM2YXqN97A8FCs-55" value="P" style="edgeLabel;html=1;align=center;verticalAlign=middle;resizable=0;points=[];" vertex="1" connectable="0" parent="HshuLtFM2YXqN97A8FCs-53">
          <mxGeometry x="-0.1778" y="-2" relative="1" as="geometry">
            <mxPoint as="offset" />
          </mxGeometry>
        </mxCell>
        <mxCell id="HshuLtFM2YXqN97A8FCs-50" value="_ P P V _ _" style="text;strokeColor=none;fillColor=none;html=1;fontSize=24;fontStyle=1;verticalAlign=middle;align=center;" vertex="1" parent="1">
          <mxGeometry x="200" y="560" width="100" height="40" as="geometry" />
        </mxCell>
        <mxCell id="HshuLtFM2YXqN97A8FCs-63" style="edgeStyle=orthogonalEdgeStyle;rounded=0;orthogonalLoop=1;jettySize=auto;html=1;exitX=1;exitY=0.5;exitDx=0;exitDy=0;entryX=0;entryY=0.5;entryDx=0;entryDy=0;" edge="1" parent="1" source="HshuLtFM2YXqN97A8FCs-51" target="HshuLtFM2YXqN97A8FCs-61">
          <mxGeometry relative="1" as="geometry" />
        </mxCell>
        <mxCell id="HshuLtFM2YXqN97A8FCs-64" value="K" style="edgeLabel;html=1;align=center;verticalAlign=middle;resizable=0;points=[];" vertex="1" connectable="0" parent="HshuLtFM2YXqN97A8FCs-63">
          <mxGeometry x="-0.1143" y="-1" relative="1" as="geometry">
            <mxPoint as="offset" />
          </mxGeometry>
        </mxCell>
        <mxCell id="HshuLtFM2YXqN97A8FCs-51" value="P P P V _ _" style="text;strokeColor=none;fillColor=none;html=1;fontSize=24;fontStyle=1;verticalAlign=middle;align=center;" vertex="1" parent="1">
          <mxGeometry x="200" y="690" width="100" height="40" as="geometry" />
        </mxCell>
        <mxCell id="HshuLtFM2YXqN97A8FCs-71" style="edgeStyle=orthogonalEdgeStyle;rounded=0;orthogonalLoop=1;jettySize=auto;html=1;exitX=0.25;exitY=0;exitDx=0;exitDy=0;entryX=0.75;entryY=1;entryDx=0;entryDy=0;" edge="1" parent="1" source="HshuLtFM2YXqN97A8FCs-61" target="HshuLtFM2YXqN97A8FCs-50">
          <mxGeometry relative="1" as="geometry" />
        </mxCell>
        <mxCell id="HshuLtFM2YXqN97A8FCs-72" value="P" style="edgeLabel;html=1;align=center;verticalAlign=middle;resizable=0;points=[];" vertex="1" connectable="0" parent="HshuLtFM2YXqN97A8FCs-71">
          <mxGeometry x="-0.25" y="-2" relative="1" as="geometry">
            <mxPoint as="offset" />
          </mxGeometry>
        </mxCell>
        <mxCell id="HshuLtFM2YXqN97A8FCs-104" style="edgeStyle=orthogonalEdgeStyle;rounded=0;orthogonalLoop=1;jettySize=auto;html=1;exitX=0.75;exitY=0;exitDx=0;exitDy=0;entryX=0;entryY=0.75;entryDx=0;entryDy=0;" edge="1" parent="1" source="HshuLtFM2YXqN97A8FCs-61" target="HshuLtFM2YXqN97A8FCs-65">
          <mxGeometry relative="1" as="geometry" />
        </mxCell>
        <mxCell id="HshuLtFM2YXqN97A8FCs-105" value="K" style="edgeLabel;html=1;align=center;verticalAlign=middle;resizable=0;points=[];" vertex="1" connectable="0" parent="HshuLtFM2YXqN97A8FCs-104">
          <mxGeometry x="-0.275" y="-2" relative="1" as="geometry">
            <mxPoint as="offset" />
          </mxGeometry>
        </mxCell>
        <mxCell id="HshuLtFM2YXqN97A8FCs-61" value="_ P P L _ _" style="text;strokeColor=none;fillColor=none;html=1;fontSize=24;fontStyle=1;verticalAlign=middle;align=center;" vertex="1" parent="1">
          <mxGeometry x="440" y="690" width="100" height="40" as="geometry" />
        </mxCell>
        <mxCell id="HshuLtFM2YXqN97A8FCs-69" style="edgeStyle=orthogonalEdgeStyle;rounded=0;orthogonalLoop=1;jettySize=auto;html=1;exitX=0.5;exitY=0;exitDx=0;exitDy=0;entryX=0.75;entryY=1;entryDx=0;entryDy=0;" edge="1" parent="1" source="HshuLtFM2YXqN97A8FCs-65" target="HshuLtFM2YXqN97A8FCs-32">
          <mxGeometry relative="1" as="geometry" />
        </mxCell>
        <mxCell id="HshuLtFM2YXqN97A8FCs-70" value="P" style="edgeLabel;html=1;align=center;verticalAlign=middle;resizable=0;points=[];" vertex="1" connectable="0" parent="HshuLtFM2YXqN97A8FCs-69">
          <mxGeometry x="-0.2068" y="2" relative="1" as="geometry">
            <mxPoint as="offset" />
          </mxGeometry>
        </mxCell>
        <mxCell id="HshuLtFM2YXqN97A8FCs-83" style="edgeStyle=orthogonalEdgeStyle;rounded=0;orthogonalLoop=1;jettySize=auto;html=1;exitX=1;exitY=0.5;exitDx=0;exitDy=0;" edge="1" parent="1" source="HshuLtFM2YXqN97A8FCs-65" target="HshuLtFM2YXqN97A8FCs-82">
          <mxGeometry relative="1" as="geometry" />
        </mxCell>
        <mxCell id="HshuLtFM2YXqN97A8FCs-84" value="K" style="edgeLabel;html=1;align=center;verticalAlign=middle;resizable=0;points=[];" vertex="1" connectable="0" parent="HshuLtFM2YXqN97A8FCs-83">
          <mxGeometry x="0.2229" y="-4" relative="1" as="geometry">
            <mxPoint as="offset" />
          </mxGeometry>
        </mxCell>
        <mxCell id="HshuLtFM2YXqN97A8FCs-65" value="_ _ P L K _" style="text;strokeColor=none;fillColor=none;html=1;fontSize=24;fontStyle=1;verticalAlign=middle;align=center;" vertex="1" parent="1">
          <mxGeometry x="580" y="565" width="100" height="40" as="geometry" />
        </mxCell>
        <mxCell id="HshuLtFM2YXqN97A8FCs-89" style="edgeStyle=orthogonalEdgeStyle;rounded=0;orthogonalLoop=1;jettySize=auto;html=1;exitX=0.5;exitY=1;exitDx=0;exitDy=0;" edge="1" parent="1" source="HshuLtFM2YXqN97A8FCs-79" target="HshuLtFM2YXqN97A8FCs-88">
          <mxGeometry relative="1" as="geometry" />
        </mxCell>
        <mxCell id="HshuLtFM2YXqN97A8FCs-90" value="K" style="edgeLabel;html=1;align=center;verticalAlign=middle;resizable=0;points=[];" vertex="1" connectable="0" parent="HshuLtFM2YXqN97A8FCs-89">
          <mxGeometry x="0.2" y="-3" relative="1" as="geometry">
            <mxPoint as="offset" />
          </mxGeometry>
        </mxCell>
        <mxCell id="HshuLtFM2YXqN97A8FCs-94" style="edgeStyle=orthogonalEdgeStyle;rounded=0;orthogonalLoop=1;jettySize=auto;html=1;exitX=0.25;exitY=0;exitDx=0;exitDy=0;entryX=0;entryY=0.5;entryDx=0;entryDy=0;" edge="1" parent="1" source="HshuLtFM2YXqN97A8FCs-79" target="HshuLtFM2YXqN97A8FCs-32">
          <mxGeometry relative="1" as="geometry" />
        </mxCell>
        <mxCell id="HshuLtFM2YXqN97A8FCs-95" value="P" style="edgeLabel;html=1;align=center;verticalAlign=middle;resizable=0;points=[];" vertex="1" connectable="0" parent="HshuLtFM2YXqN97A8FCs-94">
          <mxGeometry x="-0.2508" y="3" relative="1" as="geometry">
            <mxPoint as="offset" />
          </mxGeometry>
        </mxCell>
        <mxCell id="HshuLtFM2YXqN97A8FCs-79" value="_ _ P L _ _" style="text;strokeColor=none;fillColor=none;html=1;fontSize=24;fontStyle=1;verticalAlign=middle;align=center;" vertex="1" parent="1">
          <mxGeometry x="20" y="620" width="100" height="40" as="geometry" />
        </mxCell>
        <mxCell id="HshuLtFM2YXqN97A8FCs-80" style="edgeStyle=orthogonalEdgeStyle;rounded=0;orthogonalLoop=1;jettySize=auto;html=1;exitX=0;exitY=0.5;exitDx=0;exitDy=0;entryX=0.57;entryY=-0.025;entryDx=0;entryDy=0;entryPerimeter=0;" edge="1" parent="1" source="HshuLtFM2YXqN97A8FCs-50" target="HshuLtFM2YXqN97A8FCs-79">
          <mxGeometry relative="1" as="geometry" />
        </mxCell>
        <mxCell id="HshuLtFM2YXqN97A8FCs-81" value="K" style="edgeLabel;html=1;align=center;verticalAlign=middle;resizable=0;points=[];" vertex="1" connectable="0" parent="HshuLtFM2YXqN97A8FCs-80">
          <mxGeometry x="-0.5679" y="1" relative="1" as="geometry">
            <mxPoint as="offset" />
          </mxGeometry>
        </mxCell>
        <mxCell id="HshuLtFM2YXqN97A8FCs-86" style="edgeStyle=orthogonalEdgeStyle;rounded=0;orthogonalLoop=1;jettySize=auto;html=1;exitX=1;exitY=0;exitDx=0;exitDy=0;entryX=0.75;entryY=0;entryDx=0;entryDy=0;" edge="1" parent="1" source="HshuLtFM2YXqN97A8FCs-82" target="HshuLtFM2YXqN97A8FCs-30">
          <mxGeometry relative="1" as="geometry" />
        </mxCell>
        <mxCell id="HshuLtFM2YXqN97A8FCs-87" value="P" style="edgeLabel;html=1;align=center;verticalAlign=middle;resizable=0;points=[];" vertex="1" connectable="0" parent="HshuLtFM2YXqN97A8FCs-86">
          <mxGeometry x="-0.378" y="3" relative="1" as="geometry">
            <mxPoint as="offset" />
          </mxGeometry>
        </mxCell>
        <mxCell id="HshuLtFM2YXqN97A8FCs-82" value="_ _ _ L K K" style="text;strokeColor=none;fillColor=none;html=1;fontSize=24;fontStyle=1;verticalAlign=middle;align=center;" vertex="1" parent="1">
          <mxGeometry x="670" y="720" width="100" height="40" as="geometry" />
        </mxCell>
        <mxCell id="HshuLtFM2YXqN97A8FCs-92" style="edgeStyle=orthogonalEdgeStyle;rounded=0;orthogonalLoop=1;jettySize=auto;html=1;exitX=0.5;exitY=1;exitDx=0;exitDy=0;" edge="1" parent="1" source="HshuLtFM2YXqN97A8FCs-88" target="HshuLtFM2YXqN97A8FCs-91">
          <mxGeometry relative="1" as="geometry" />
        </mxCell>
        <mxCell id="HshuLtFM2YXqN97A8FCs-93" value="K" style="edgeLabel;html=1;align=center;verticalAlign=middle;resizable=0;points=[];" vertex="1" connectable="0" parent="HshuLtFM2YXqN97A8FCs-92">
          <mxGeometry x="0.1778" relative="1" as="geometry">
            <mxPoint as="offset" />
          </mxGeometry>
        </mxCell>
        <mxCell id="HshuLtFM2YXqN97A8FCs-97" style="edgeStyle=orthogonalEdgeStyle;rounded=0;orthogonalLoop=1;jettySize=auto;html=1;exitX=0;exitY=0;exitDx=0;exitDy=0;entryX=0;entryY=0;entryDx=0;entryDy=0;" edge="1" parent="1" source="HshuLtFM2YXqN97A8FCs-88" target="HshuLtFM2YXqN97A8FCs-30">
          <mxGeometry relative="1" as="geometry" />
        </mxCell>
        <mxCell id="HshuLtFM2YXqN97A8FCs-88" value="_ _ L K _" style="text;strokeColor=none;fillColor=none;html=1;fontSize=24;fontStyle=1;verticalAlign=middle;align=center;" vertex="1" parent="1">
          <mxGeometry x="20" y="770" width="100" height="40" as="geometry" />
        </mxCell>
        <mxCell id="HshuLtFM2YXqN97A8FCs-98" style="edgeStyle=orthogonalEdgeStyle;rounded=0;orthogonalLoop=1;jettySize=auto;html=1;exitX=0;exitY=0;exitDx=0;exitDy=0;entryX=0;entryY=0;entryDx=0;entryDy=0;" edge="1" parent="1" source="HshuLtFM2YXqN97A8FCs-91" target="HshuLtFM2YXqN97A8FCs-30">
          <mxGeometry relative="1" as="geometry" />
        </mxCell>
        <mxCell id="HshuLtFM2YXqN97A8FCs-101" value="P" style="edgeLabel;html=1;align=center;verticalAlign=middle;resizable=0;points=[];" vertex="1" connectable="0" parent="HshuLtFM2YXqN97A8FCs-98">
          <mxGeometry x="-0.8537" relative="1" as="geometry">
            <mxPoint as="offset" />
          </mxGeometry>
        </mxCell>
        <mxCell id="HshuLtFM2YXqN97A8FCs-102" value="P" style="edgeLabel;html=1;align=center;verticalAlign=middle;resizable=0;points=[];" vertex="1" connectable="0" parent="HshuLtFM2YXqN97A8FCs-98">
          <mxGeometry x="-0.5854" y="2" relative="1" as="geometry">
            <mxPoint as="offset" />
          </mxGeometry>
        </mxCell>
        <mxCell id="HshuLtFM2YXqN97A8FCs-91" value="_ _ L K K" style="text;strokeColor=none;fillColor=none;html=1;fontSize=24;fontStyle=1;verticalAlign=middle;align=center;" vertex="1" parent="1">
          <mxGeometry x="20" y="900" width="100" height="40" as="geometry" />
        </mxCell>
      </root>
    </mxGraphModel>
  </diagram>
</mxfile>
